<?xml version="1.0" encoding="utf-8"?>
<svg id="icon" class="icon" version="1.1"
  xmlns="http://www.w3.org/2000/svg"
  xmlns:xlink="http://www.w3.org/1999/xlink">
  <desc>
    dibuat oleh Deo Valiandro [https://deo.ilkom.my.id] untuk keperluan blog
  </desc>
  <defs>
    <style>
      rect, line { shape-rendering: crispEdges; }
      svg .icon { display: none; }
      svg .icon:target { display: inline }
    </style>
  </defs>
  <svg id="id" viewBox="0 0 512 512" class="icon">
    <mask id="circleFlagsId0">
      <circle cx="256" cy="256" r="256" fill="#fff"/>
    </mask>
    <g mask="url(#circleFlagsId0)">
      <path fill="#eee" d="m0 256l249.6-41.3L512 256v256H0z"/>
      <path fill="#a2001d" d="M0 0h512v256H0z"/>
    </g>
  </svg>

  <svg id="yt" viewBox="0 0 20 20" class="icon">
    <path fill="currentColor" d="M11.603 9.833L9.357 8.785C9.161 8.694 9 8.796 9 9.013v1.974c0 .217.161.319.357.228l2.245-1.048c.197-.092.197-.242.001-.334zM10 .4C4.698.4.4 4.698.4 10s4.298 9.6 9.6 9.6s9.6-4.298 9.6-9.6S15.302.4 10 .4zm0 13.5c-4.914 0-5-.443-5-3.9s.086-3.9 5-3.9s5 .443 5 3.9s-.086 3.9-5 3.9z"/>
  </svg>

  <svg viewBox="2 -2 24 24" id="wikipedia" class="icon">
    <path fill="currentColor" d="m14.97 18.95l-2.56-6.03c-1.02 1.99-2.14 4.08-3.1 6.03c-.01.01-.47 0-.47 0C7.37 15.5 5.85 12.1 4.37 8.68C4.03 7.84 2.83 6.5 2 6.5v-.45h5.06v.45c-.6 0-1.62.4-1.36 1.05c.72 1.54 3.24 7.51 3.93 9.03c.47-.94 1.8-3.42 2.37-4.47c-.45-.88-1.87-4.18-2.29-5c-.32-.54-1.13-.61-1.75-.61c0-.15.01-.25 0-.44l4.46.01v.4c-.61.03-1.18.24-.92.82c.6 1.24.95 2.13 1.5 3.28c.17-.34 1.07-2.19 1.5-3.16c.26-.65-.13-.91-1.21-.91c.01-.12.01-.33.01-.43c1.39-.01 3.48-.01 3.85-.02v.42c-.71.03-1.44.41-1.82.99L13.5 11.3c.18.51 1.96 4.46 2.15 4.9l3.85-8.83c-.3-.72-1.16-.87-1.5-.87v-.45l4 .03v.42c-.88 0-1.43.5-1.75 1.25c-.8 1.79-3.25 7.49-4.85 11.2h-.43Z"/>
  </svg>

  <svg viewBox="0 0 32 32" id="pdf" class="icon">
    <path fill="currentColor" d="M9 16a1 1 0 0 0-1 1v5a1 1 0 1 0 2 0v-1h.5a2.5 2.5 0 0 0 0-5H9Zm1.5 3H10v-1h.5a.5.5 0 0 1 0 1Zm3.5-2a1 1 0 0 1 1-1h.5a3.5 3.5 0 1 1 0 7H15a1 1 0 0 1-1-1v-5Zm2 3.915a1.5 1.5 0 0 0 0-2.83v2.83ZM20 22v-5a1 1 0 0 1 1-1h3a1 1 0 1 1 0 2h-2v1h2a1 1 0 1 1 0 2h-2v1a1 1 0 1 1-2 0ZM17 9V2H8a3 3 0 0 0-3 3v8a2 2 0 0 0-2 2v9a2 2 0 0 0 2 2v1a3 3 0 0 0 3 3h16a3 3 0 0 0 3-3v-1a2 2 0 0 0 2-2v-9a2 2 0 0 0-2-2v-1h-7a3 3 0 0 1-3-3Zm10 6v9H5v-9h22Zm-8-6V2.117a3 3 0 0 1 1.293.762l5.828 5.828A3 3 0 0 1 26.883 10H20a1 1 0 0 1-1-1Z"/>
  </svg>

  <svg viewBox="0 0 24 24" id="python" class="icon">
    <path fill="#000000" d="M9.585 11.692h4.328s2.432.039 2.432-2.35V5.391S16.714 3 11.936 3C7.362 3 7.647 4.983 7.647 4.983l.006 2.055h4.363v.617H5.92s-2.927-.332-2.927 4.282s2.555 4.45 2.555 4.45h1.524v-2.141s-.083-2.554 2.513-2.554zm-.056-5.74a.784.784 0 1 1 0-1.57a.784.784 0 1 1 0 1.57z"/>
    <path fill="#000000" d="M18.452 7.532h-1.524v2.141s.083 2.554-2.513 2.554h-4.328s-2.432-.04-2.432 2.35v3.951s-.369 2.391 4.409 2.391c4.573 0 4.288-1.983 4.288-1.983l-.006-2.054h-4.363v-.617h6.097s2.927.332 2.927-4.282s-2.555-4.451-2.555-4.451zm-3.981 10.436a.784.784 0 1 1 0 1.57a.784.784 0 1 1 0-1.57z"/>
  </svg>

  <svg viewBox="0 0 24 24" id="google" class="icon">
    <path fill="currentColor" d="M12.222 5.977a5.402 5.402 0 0 1 3.823 1.496l2.868-2.868A9.61 9.61 0 0 0 12.222 2a9.996 9.996 0 0 0-8.937 5.51l3.341 2.59a5.96 5.96 0 0 1 5.596-4.123z" opacity=".7"/>
    <path fill="currentColor" d="M3.285 7.51a10.013 10.013 0 0 0 0 8.98l3.341-2.59a5.913 5.913 0 0 1 0-3.8l-3.34-2.59z"/>
    <path fill="currentColor" d="M15.608 17.068A6.033 6.033 0 0 1 6.626 13.9l-3.34 2.59A9.996 9.996 0 0 0 12.221 22a9.547 9.547 0 0 0 6.618-2.423l-3.232-2.509z" opacity=".5"/>
    <path fill="currentColor" d="M21.64 10.182h-9.418v3.868h5.382a4.6 4.6 0 0 1-1.996 3.018l-.01.006l.01-.006l3.232 2.51a9.753 9.753 0 0 0 2.982-7.35c0-.687-.06-1.371-.182-2.046z" opacity=".25"/>
  </svg>

  <svg viewBox="0 0 24 24" id="link" class="icon">
    <path fill="#000000" d="M11 17H7q-2.075 0-3.538-1.463T2 12q0-2.075 1.463-3.538T7 7h4v2H7q-1.25 0-2.125.875T4 12q0 1.25.875 2.125T7 15h4v2Zm-3-4v-2h8v2H8Zm5 4v-2h4q1.25 0 2.125-.875T20 12q0-1.25-.875-2.125T17 9h-4V7h4q2.075 0 3.538 1.463T22 12q0 2.075-1.463 3.538T17 17h-4Z"/>
  </svg>

  <svg viewBox="0 0 16 16" id="pencil" class="icon">
    <path fill="#000000" d="M10.733 2.56a1.914 1.914 0 0 1 2.707 2.708l-.733.734l-2.708-2.708l.734-.733Zm-1.44 1.441L3.337 9.955a1.65 1.65 0 0 0-.398.644l-.914 2.743a.5.5 0 0 0 .632.633L5.4 13.06c.243-.08.463-.217.644-.398L12 6.709L9.292 4Z"/>
  </svg>

  <svg viewBox="0 0 24 24" id="github" class="icon">
    <path fill="#000000" d="M12 2A10 10 0 0 0 2 12c0 4.42 2.87 8.17 6.84 9.5c.5.08.66-.23.66-.5v-1.69c-2.77.6-3.36-1.34-3.36-1.34c-.46-1.16-1.11-1.47-1.11-1.47c-.91-.62.07-.6.07-.6c1 .07 1.53 1.03 1.53 1.03c.87 1.52 2.34 1.07 2.91.83c.09-.65.35-1.09.63-1.34c-2.22-.25-4.55-1.11-4.55-4.92c0-1.11.38-2 1.03-2.71c-.1-.25-.45-1.29.1-2.64c0 0 .84-.27 2.75 1.02c.79-.22 1.65-.33 2.5-.33c.85 0 1.71.11 2.5.33c1.91-1.29 2.75-1.02 2.75-1.02c.55 1.35.2 2.39.1 2.64c.65.71 1.03 1.6 1.03 2.71c0 3.82-2.34 4.66-4.57 4.91c.36.31.69.92.69 1.85V21c0 .27.16.59.67.5C19.14 20.16 22 16.42 22 12A10 10 0 0 0 12 2Z"/>
</svg>
</svg>
